# ProBuilder 5.2.3
# https://unity3d.com/unity/features/worldbuilding/probuilder
# 19/08/2024 3:44:40 p.m.

mtllib ./spinny1.mtl
o spinny1

g New Game Object
v -0.4848595 0 -0.152874
v -0.4848595 0 -0.05095863
v -0.3428478 -0.3428469 -0.152874
v -0.3428478 -0.3428469 -0.05095863
v -0.4848595 0 0.05095673
v -0.3428478 -0.3428469 0.05095673
v -0.4848595 0 0.152874
v -0.3428478 -0.3428469 0.152874
v 0 -0.4848585 -0.152874
v 0 -0.4848585 -0.05095863
v 0 -0.4848585 0.05095673
v 0 -0.4848585 0.152874
v 0.2885132 -0.3653536 -0.152874
v 0.2885113 -0.3653517 -0.1367226
v 0.2885113 -0.3653517 -0.05095863
v 0.2885113 -0.3653517 -0.03480721
v 0.2885113 -0.3653517 0.05095673
v 0.2885113 -0.3653517 0.06710815
v 0.2885113 -0.3653517 0.152874
v 0.3428459 -0.3428469 -0.152874
v 0.3428459 -0.3428469 -0.05095863
v 0.3428459 -0.3428469 0.05095673
v 0.3428459 -0.3428469 0.152874
v 0.4565506 -0.06833744 -0.152874
v 0.4565506 -0.06833553 -0.1325588
v 0.4565506 -0.06833553 -0.05095863
v 0.4565506 -0.06833553 -0.03064346
v 0.4565506 -0.06833553 0.05095673
v 0.4565506 -0.06833553 0.07126999
v 0.4565506 -0.06833553 0.152874
v 0.4848576 0 -0.152874
v 0.4848576 0 -0.05095863
v 0.4848576 0 0.05095673
v 0.4848576 0 0.152874
v 0.4591866 0.06197739 -0.152874
v 0.4591866 0.06197834 -0.06938171
v 0.4591866 0.06197834 -0.05095863
v 0.4591866 0.06197834 0.03253174
v 0.4591866 0.06197834 0.05095673
v 0.4591866 0.06197834 0.1344509
v 0.4591866 0.06197834 0.152874
v 0.07302856 0.4546089 -0.152874
v 0.07302856 0.4546099 -0.1311646
v 0 0.4848585 -0.152874
v 0.07302856 0.4546099 -0.05095863
v 0 0.4848585 -0.05095863
v 0.07302856 0.4546099 -0.02924919
v 0.07302856 0.4546099 0.05095673
v 0 0.4848585 0.05095673
v 0.07302856 0.4546099 0.07266426
v 0.07302856 0.4546099 0.1528721
v 0 0.4848585 0.152874
v 0.0957756 0.4451866 -0.152874
v 0.0957756 0.4451876 -0.1244011
v 0.0957756 0.4451876 -0.05095863
v 0.0957756 0.4451876 -0.02248573
v 0.0957756 0.4451876 0.05095863
v 0.0957756 0.4451876 0.07942772
v 0.0957756 0.4451876 0.1528721
v -0.05433846 0.4623508 -0.152874
v -0.05433846 0.4623499 -0.06711006
v -0.3428478 0.3428469 -0.152874
v -0.05433846 0.4623499 -0.05095863
v -0.3428478 0.3428469 -0.05095863
v -0.05433846 0.4623499 0.03480339
v -0.05433846 0.4623499 0.05095673
v -0.3428478 0.3428469 0.05095673
v -0.05433846 0.4623499 0.1367207
v -0.05433846 0.4623499 0.152874
v -0.3428478 0.3428469 0.152874
v 0 0 -0.152874
v 0.2341766 -0.2341776 -0.1528721
v 0.1371765 9.536743E-07 -0.1528721
v 0.09699631 0.09699821 -0.152874
v 0 0.3311682 -0.152874
v 0.2915707 9.536743E-07 -0.1528721
v 0.1051979 0.07719898 -0.152874
v 0.3005657 -0.003724098 -0.1528721
v 0.309557 9.536743E-07 -0.1528721
v 0 0.4243593 -0.152874
v -0.03294754 0.4107122 -0.1528721
v 0.02427483 0.2725649 -0.152874
v 0 0 0.152874
v 0.2341766 -0.2341776 0.1528721
v 0.1371746 0 0.152874
v 0.09699631 0.09699726 0.1528721
v 0 0.3311682 0.152874
v 0.2915726 0 0.152874
v 0.105196 0.07719994 0.152874
v 0.3005657 -0.003725052 0.152874
v 0.3095551 0 0.152874
v 0 0.4243593 0.152874
v -0.03294754 0.4107113 0.1528721
v 0.02427292 0.2725668 0.1528759
v 0.08792305 0.1189041 -0.1528721
v 0.02427292 0.2725668 -0.06075478
v 0.1051979 0.07719898 -0.06075478
v 0.02427292 0.2725668 0.05636787
v 0.1051979 0.07719898 0.05636787
v 0.038517 0.2381783 0.1528721
v 0.2588615 0.01355076 -0.1528721
v 0.3005657 -0.003725052 -0.06075478
v 0.3005657 -0.003725052 0.05636787
v 0.1395874 0.06295395 0.1528721
v 0.4542294 0.05992413 -0.152874
v 0.4591866 0.06197739 -0.06075478
v 0.4591866 0.06197739 -0.0387249
v 0.4591866 0.06197739 0.05636787
v 0.4591866 0.06197739 0.07839775
v 0.3349552 0.01051903 0.1528721
v 0.04154968 0.3142738 -0.1528721
v 0.0957756 0.4451876 -0.07439041
v 0.0957756 0.4451876 -0.06075478
v 0.0957756 0.4451876 0.04273033
v 0.0957756 0.4451876 0.05636787
v 0.09095573 0.4335508 0.1528759

vt 0.1585128 0
vt 0.1585128 0.6666667
vt 0.9238797 0
vt 0.9238797 0.6666667
vt 0.1585128 1.333333
vt 0.9238797 1.333333
vt 0.1585128 2
vt 0.9238797 2
vt -0.9238798 0
vt -0.9238798 0.6666667
vt -0.1585129 0
vt -0.1585129 0.6666667
vt -0.9238798 1.333333
vt -0.1585129 1.333333
vt -0.9238798 2
vt -0.1585128 2
vt -1.045174 0
vt -1.689246 0
vt -1.689246 0.6666667
vt -1.045174 0.1056527
vt -1.045174 0.6666667
vt -1.689246 1.333333
vt -1.045174 0.7723194
vt -1.045174 1.333333
vt -1.689246 2
vt -1.045174 1.438986
vt -1.045174 2
vt -1.076433 0
vt -1.076433 0.1328803
vt -1.076433 0.6666667
vt -1.076433 0.799547
vt -1.076433 1.333333
vt -1.076433 1.466214
vt -1.076433 2
vt -0.7855201 0
vt -0.7855197 0.5461495
vt -0.7855197 0.6666667
vt -0.7855197 1.212816
vt -0.7855197 1.333333
vt -0.7855197 1.879483
vt -0.7855198 2
vt 0.7608531 0
vt 0.7608505 0.1420051
vt 0.7608505 0.6666667
vt 0.7608505 0.8086718
vt 0.7608505 1.333333
vt 0.7608505 1.475338
vt 0.7608505 2
vt 0.710071 0
vt 0.7100683 0.1862385
vt 0.7100683 0.6666667
vt 0.7100683 0.8529052
vt 0.7100683 1.333333
vt 0.7100683 1.519572
vt 0.7100683 2
vt 1.045184 0
vt 1.045185 0.5610049
vt 1.689246 0
vt 1.045185 0.6666667
vt 1.689246 0.6666667
vt 1.045185 1.227672
vt 1.045185 1.333333
vt 1.689246 1.333333
vt 1.045185 1.894338
vt 1.045185 2
vt 1.689246 2
vt -1.707107 1.707107
vt -1 1
vt -2 1
vt -0.9999999 2
vt -0.4049549 1.753524
vt -0.5170195 1.48298
vt -0.7170798 1
vt -0.799946 0.799946
vt -1 0.3169797
vt -1.112071 0.04642143
vt -1.707107 0.2928931
vt -0.2928932 1.707107
vt -0.05837959 1.140941
vt -0.3986449 1
vt -0.7830317 0.8407803
vt -0.3800935 1.007684
vt 0 0.9999999
vt -0.3615501 1
vt -0.05294799 0.8721722
vt -0.8493808 0.06238852
vt -1 0
vt -1 0.1247778
vt -1.067955 0.1529248
vt -0.8024642 0.08182202
vt -0.9499348 0.437847
vt 2 1
vt 1 1
vt 1.707107 1.707107
vt 0.9999999 2
vt 0.4049548 1.753524
vt 0.5170193 1.482981
vt 0.7170801 1
vt 0.7999472 0.7999472
vt 1 0.3169801
vt 1.11207 0.04642101
vt 1.707107 0.2928931
vt 0.2928932 1.707107
vt 0.05837976 1.140941
vt 0.39864 1
vt 0.7830332 0.84078
vt 0.3800925 1.007683
vt 0.3615484 1
vt 0.0529478 0.8721726
vt 0.8493832 0.06238751
vt 1 0.124777
vt 1 0
vt 1.067955 0.1529245
vt 0.8024667 0.08182099
vt 0.9499357 0.4378443
vt 0.7604959 0.1423142
vt 0.1585128 0.1423135
vt 0.9238797 0.1423142
vt 0.2932345 1.882652
vt 0.1585128 1.882651
vt 0.9238797 1.882652
vt -0.3218967 0.1423142
vt -0.9238798 0.1423135
vt -0.1585129 0.1423142
vt -0.7891582 1.882652
vt -0.9238798 1.882651
vt -0.1585128 1.882652
vt -1.087263 0.1423137
vt -1.689246 0.1423135
vt -1.06784 0.1423127
vt -1.067841 0.6666667
vt -1.067841 0.7920632
vt -1.067841 1.333333
vt -1.067841 1.45873
vt -1.554525 1.882652
vt -1.689246 1.882651
vt -1.067841 1.882651
vt 1.012995 0.1423118
vt 1.525857 0.1423191
vt 1.012995 0.5890435
vt 1.689247 0.1423142
vt 1.012995 0.6666667
vt 1.012995 1.25571
vt 1.012995 1.333333
vt 1.012995 1.882654
vt 1.058584 1.882667
vt 1.689247 1.882652

vn -0.9238797 -0.382683 0
vn -0.3826821 -0.9238801 0
vn 0.3827034 -0.9238713 0.000115722
vn 0.9238796 -0.3826832 2.694705E-05
vn 0.9238854 0.3826693 -2.185466E-06
vn 0.3826899 0.9238769 -3.817485E-05
vn -0.3826864 0.9238783 7.704974E-06
vn -0.9238797 0.382683 0
vn 0 0 -1
vn 0 0 1

usemtl EdgePicker
f 15/21/3 10/19/3 14/20/3
f 17/24/3 11/22/3 16/23/3
f 19/27/3 12/25/3 18/26/3
f 20/9/3 14/20/3 13/17/3
f 21/10/3 16/23/3 15/21/3
f 22/13/3 18/26/3 17/24/3
f 26/30/4 21/19/4 25/29/4
f 28/32/4 22/22/4 27/31/4
f 30/34/4 23/25/4 29/33/4
f 31/9/4 25/29/4 24/28/4
f 32/10/4 27/31/4 26/30/4
f 33/13/4 29/33/4 28/32/4
f 37/37/5 32/10/5 36/36/5
f 39/39/5 33/13/5 38/38/5
f 41/41/5 34/15/5 40/40/5
f 44/3/6 43/43/6 42/42/6
f 46/4/6 47/45/6 45/44/6
f 49/6/6 50/47/6 48/46/6
f 64/60/7 63/59/7 61/57/7
f 67/63/7 66/62/7 65/61/7
f 63/59/7 46/4/7 61/57/7
f 66/62/7 49/6/7 65/61/7
f 9/70/9 71/68/9 13/71/9
f 74/74/9 71/68/9 75/75/9
f 62/77/9 71/68/9 1/69/9
f 31/83/9 79/84/9 35/85/9
f 80/88/9 44/87/9 42/86/9
f 82/91/9 75/75/9 53/90/9
f 80/88/9 75/75/9 81/89/9
f 87/100/10 83/93/10 86/99/10
f 83/93/10 87/100/10 69/101/10
f 70/102/10 83/93/10 69/101/10
f 7/92/10 83/93/10 70/102/10
f 89/106/10 85/98/10 88/105/10
f 91/108/10 90/107/10 30/104/10
f 87/100/10 92/111/10 93/113/10
f 97/4/5 77/118/5 95/116/5
f 98/5/5 94/120/5 99/6/5
f 102/12/6 78/124/6 101/122/6
f 99/13/6 89/126/6 103/14/6
f 106/131/7 35/130/7 105/128/7
f 90/136/7 110/135/7 108/133/7
f 112/140/4 111/139/4 53/138/4
f 82/141/4 111/139/4 112/140/4
f 115/144/4 98/63/4 114/143/4
f 94/147/4 98/63/4 116/146/4
f 4/4/1 2/2/1 1/1/1
f 1/1/1 3/3/1 4/4/1
f 6/6/1 5/5/1 2/2/1
f 2/2/1 4/4/1 6/6/1
f 8/8/1 7/7/1 5/5/1
f 5/5/1 6/6/1 8/8/1
f 10/12/2 4/10/2 3/9/2
f 3/9/2 9/11/2 10/12/2
f 11/14/2 6/13/2 4/10/2
f 4/10/2 10/12/2 11/14/2
f 12/16/2 8/15/2 6/13/2
f 6/13/2 11/14/2 12/16/2
f 10/19/3 9/18/3 13/17/3
f 13/17/3 14/20/3 10/19/3
f 11/22/3 10/19/3 15/21/3
f 15/21/3 16/23/3 11/22/3
f 12/25/3 11/22/3 17/24/3
f 17/24/3 18/26/3 12/25/3
f 21/10/3 15/21/3 14/20/3
f 14/20/3 20/9/3 21/10/3
f 22/13/3 17/24/3 16/23/3
f 16/23/3 21/10/3 22/13/3
f 23/15/3 19/27/3 18/26/3
f 18/26/3 22/13/3 23/15/3
f 21/19/4 20/18/4 24/28/4
f 24/28/4 25/29/4 21/19/4
f 22/22/4 21/19/4 26/30/4
f 26/30/4 27/31/4 22/22/4
f 23/25/4 22/22/4 28/32/4
f 28/32/4 29/33/4 23/25/4
f 32/10/4 26/30/4 25/29/4
f 25/29/4 31/9/4 32/10/4
f 33/13/4 28/32/4 27/31/4
f 27/31/4 32/10/4 33/13/4
f 34/15/4 30/34/4 29/33/4
f 29/33/4 33/13/4 34/15/4
f 32/10/5 31/9/5 35/35/5
f 35/35/5 36/36/5 32/10/5
f 33/13/5 32/10/5 37/37/5
f 37/37/5 38/38/5 33/13/5
f 34/15/5 33/13/5 39/39/5
f 39/39/5 40/40/5 34/15/5
f 46/4/6 45/44/6 43/43/6
f 43/43/6 44/3/6 46/4/6
f 49/6/6 48/46/6 47/45/6
f 47/45/6 46/4/6 49/6/6
f 52/8/6 51/48/6 50/47/6
f 50/47/6 49/6/6 52/8/6
f 54/50/6 53/49/6 42/42/6
f 42/42/6 43/43/6 54/50/6
f 55/51/6 54/50/6 43/43/6
f 43/43/6 45/44/6 55/51/6
f 56/52/6 55/51/6 45/44/6
f 45/44/6 47/45/6 56/52/6
f 57/53/6 56/52/6 47/45/6
f 47/45/6 48/46/6 57/53/6
f 58/54/6 57/53/6 48/46/6
f 48/46/6 50/47/6 58/54/6
f 59/55/6 58/54/6 50/47/6
f 50/47/6 51/48/6 59/55/6
f 64/60/7 61/57/7 60/56/7
f 60/56/7 62/58/7 64/60/7
f 67/63/7 65/61/7 63/59/7
f 63/59/7 64/60/7 67/63/7
f 70/66/7 68/64/7 66/62/7
f 66/62/7 67/63/7 70/66/7
f 68/64/7 70/66/7 69/65/7
f 69/65/7 52/8/7 68/64/7
f 46/4/7 44/3/7 60/56/7
f 60/56/7 61/57/7 46/4/7
f 49/6/7 46/4/7 63/59/7
f 63/59/7 65/61/7 49/6/7
f 52/8/7 49/6/7 66/62/7
f 66/62/7 68/64/7 52/8/7
f 2/60/8 64/4/8 62/3/8
f 62/3/8 1/58/8 2/60/8
f 5/63/8 67/6/8 64/4/8
f 64/4/8 2/60/8 5/63/8
f 7/66/8 70/8/8 67/6/8
f 67/6/8 5/63/8 7/66/8
f 3/67/9 1/69/9 71/68/9
f 71/68/9 9/70/9 3/67/9
f 13/71/9 71/68/9 72/72/9
f 72/72/9 20/78/9 13/71/9
f 73/73/9 72/72/9 71/68/9
f 71/68/9 74/74/9 73/73/9
f 71/68/9 62/77/9 60/76/9
f 60/76/9 75/75/9 71/68/9
f 77/81/9 76/80/9 24/79/9
f 24/79/9 73/73/9 77/81/9
f 72/72/9 73/73/9 24/79/9
f 24/79/9 20/78/9 72/72/9
f 31/83/9 24/79/9 78/82/9
f 78/82/9 79/84/9 31/83/9
f 80/88/9 81/89/9 60/76/9
f 60/76/9 44/87/9 80/88/9
f 80/88/9 42/86/9 53/90/9
f 53/90/9 75/75/9 80/88/9
f 12/95/10 83/93/10 7/92/10
f 7/92/10 8/94/10 12/95/10
f 83/93/10 12/95/10 19/96/10
f 19/96/10 84/97/10 83/93/10
f 86/99/10 83/93/10 84/97/10
f 84/97/10 85/98/10 86/99/10
f 30/104/10 84/97/10 19/96/10
f 19/96/10 23/103/10 30/104/10
f 85/98/10 84/97/10 30/104/10
f 30/104/10 88/105/10 85/98/10
f 41/109/10 91/108/10 30/104/10
f 30/104/10 34/83/10 41/109/10
f 51/110/10 52/112/10 92/111/10
f 92/111/10 87/100/10 51/110/10
f 52/112/10 69/101/10 93/113/10
f 93/113/10 92/111/10 52/112/10
f 94/115/10 59/114/10 51/110/10
f 51/110/10 87/100/10 94/115/10
f 95/116/5 82/117/5 96/2/5
f 96/2/5 97/4/5 95/116/5
f 97/4/5 96/2/5 98/5/5
f 98/5/5 99/6/5 97/4/5
f 99/6/5 94/120/5 100/119/5
f 100/119/5 89/121/5 99/6/5
f 101/122/6 77/123/6 97/10/6
f 97/10/6 102/12/6 101/122/6
f 102/12/6 97/10/6 99/13/6
f 99/13/6 103/14/6 102/12/6
f 103/14/6 89/126/6 104/125/6
f 104/125/6 90/127/6 103/14/6
f 105/128/7 78/129/7 102/19/7
f 102/19/7 106/131/7 105/128/7
f 103/22/7 107/132/7 106/131/7
f 106/131/7 102/19/7 103/22/7
f 90/136/7 108/133/7 107/132/7
f 107/132/7 103/22/7 90/136/7
f 41/137/7 109/134/7 108/133/7
f 108/133/7 110/135/7 41/137/7
f 96/60/4 82/141/4 112/140/4
f 112/140/4 113/142/4 96/60/4
f 98/63/4 96/60/4 113/142/4
f 113/142/4 114/143/4 98/63/4
f 98/63/4 115/144/4 59/145/4
f 59/145/4 116/146/4 98/63/4

